Coordinates
version=1
nRows=9
nColumns=36
inDegrees=yes

Units are S.I. units (second, meters, Newtons, ...)
If the header above contains a line with 'inDegrees', this indicates whether rotational values are in degrees (yes) or radians (no).

endheader
time	pelvis_tilt	pelvis_list	pelvis_rotation	pelvis_tx	pelvis_ty	pelvis_tz	hip_flexion_r	hip_adduction_r	hip_rotation_r	knee_angle_r	knee_angle_r_beta	ankle_angle_r	subtalar_angle_r	mtp_angle_r	hip_flexion_l	hip_adduction_l	hip_rotation_l	knee_angle_l	knee_angle_l_beta	ankle_angle_l	subtalar_angle_l	mtp_angle_l	lumbar_extension	lumbar_bending	lumbar_rotation	arm_flex_r	arm_add_r	arm_rot_r	elbow_flex_r	pro_sup_r	arm_flex_l	arm_add_l	arm_rot_l	elbow_flex_l	pro_sup_l
      2.84583330	     -8.40712998	      0.22928736	      1.09166157	      0.30396589	      1.08267093	     -0.04993173	     10.74378024	     -6.24177009	    -25.67542283	      0.18938704	      0.00330543	    -35.21435345	     -5.82040740	     -7.49999987	     10.36962569	     -3.08877172	    -10.36359835	      1.25202105	      0.02185189	    -34.55456949	      1.74307986	     -7.49999987	     -2.74558463	      2.11240300	      1.61513299	    175.10524573	    -21.08022352	     86.85490394	     37.02001383	     63.59958524	    164.53253004	    -16.94695545	     80.84743074	     35.25708471	     73.56808250
      2.85000000	     -8.30322630	      0.24019275	      1.10819869	      0.30439148	      1.08932952	     -0.04988658	     10.33307497	     -5.97657345	    -28.03353731	      0.19362055	      0.00337932	    -34.40720653	     -5.91924925	     -7.49999987	     10.04278680	     -2.91278684	    -11.78221046	      0.80631051	      0.01407277	    -34.16162516	     -0.52914348	     -7.49999987	     -2.51409951	      2.08859481	      1.61420360	    174.85609772	    -20.50234441	     87.46932630	     34.91516835	     63.18218594	    163.91172946	    -16.59878469	     80.91267614	     33.69505514	     73.20380369
      2.85416670	     -8.36029822	      0.23253483	      1.22557634	      0.30461879	      1.10014125	     -0.04983540	     10.02920607	     -5.76961717	    -29.58336678	      0.20511996	      0.00358002	    -34.70720650	     -6.81149345	     -7.49999987	      9.92980067	     -2.75001245	    -13.42993209	      0.59870849	      0.01044943	    -33.75014357	     -2.13317018	     -7.49999987	     -2.15828377	      2.10145345	      1.55965604	    174.80683184	    -20.08355864	     88.11902723	     33.36594334	     62.57242414	    163.49303820	    -16.38753516	     81.00424905	     32.54608886	     72.60188305
      2.85833330	     -8.21720022	      0.24061804	      1.23206465	      0.30397325	      1.11072387	     -0.04861693	      9.52139737	     -5.45335218	    -30.81462582	      0.23324055	      0.00407082	    -35.91222108	     -8.07731022	     -7.49999987	      9.53795824	     -2.55863169	    -14.58760210	      0.56626032	      0.00988311	    -33.38179841	     -3.40337577	     -7.49999987	     -2.15643151	      1.99520999	      1.47621293	    174.75271845	    -19.84421656	     88.50337618	     32.24193258	     61.94460072	    163.38085819	    -16.22500302	     81.13667204	     31.86878044	     71.73977297
      2.86250000	     -8.06585082	      0.18370131	      1.28411706	      0.30499396	      1.12052401	     -0.05185888	      8.94922477	     -5.28835944	    -31.98243802	      0.27404850	      0.00478305	    -37.61062003	     -9.01202124	     -7.49999987	      9.17093351	     -2.36885781	    -15.31084553	      0.59320194	      0.01035333	    -33.77974259	     -4.84068200	     -7.49999987	     -1.99792591	      2.08840051	      1.49355786	    174.49045899	    -19.60098214	     89.06606089	     31.00789210	     61.26283586	    162.87962317	    -16.02773797	     81.52794611	     30.99228340	     70.89425044
      2.86666670	     -7.86549390	      0.04289968	      1.30519890	      0.30410921	      1.12488430	     -0.04795877	      8.41640310	     -4.89863652	    -32.54049443	      0.34056898	      0.00594405	    -39.69820231	    -10.32078871	     -7.49999987	      8.84202044	     -2.37016311	    -15.64007801	      0.70673262	      0.01233481	    -34.57869946	     -5.87114841	     -7.49999987	     -2.15237260	      2.25548211	      1.41908009	    174.55207420	    -19.24789585	     89.37707851	     30.11392874	     61.05436464	    162.91593490	    -15.94555997	     81.70236061	     29.97544744	     70.87739377
      2.87083330	     -7.71521372	      0.06078148	      1.30698527	      0.30553297	      1.14096331	     -0.05005927	      7.96308212	     -4.80942306	    -32.92760882	      0.44400178	      0.00774929	    -42.07198961	    -11.21663461	     -7.49999987	      8.51418551	     -2.09579456	    -15.71017211	      0.89840300	      0.01568009	    -35.86257086	     -6.94077034	     -7.49999987	     -2.22703367	      2.25610032	      1.52905785	    174.54134641	    -18.90221780	     89.96213021	     28.69070848	     60.12816041	    162.72730340	    -15.66360988	     81.99867907	     28.53010063	     69.78900028
      2.87500000	     -7.45137009	     -0.00822248	      1.31503290	      0.30515985	      1.15567311	     -0.05118011	      7.51334742	     -4.64822265	    -32.87476717	      0.67592192	      0.01179706	    -43.84622123	    -11.50357895	     -7.49999987	      8.15576640	     -1.88352496	    -15.44077147	      1.23357196	      0.02152989	    -36.70291149	     -7.26071571	     -7.49999987	     -2.57507558	      2.44060890	      1.72412770	    175.15413483	    -18.71032557	     92.12327388	     28.31742559	     56.43834105	    162.43441308	    -15.92790545	     81.52286450	     28.31235700	     68.29932949
      2.87916670	     -7.10091213	     -0.19255943	      1.55730829	      0.31210558	      1.16084670	     -0.05417716	      6.75713483	     -4.44619476	    -32.35220597	      0.96894570	      0.01691129	    -44.63457091	    -11.72920678	     -7.49999987	      7.58444316	     -1.75424398	    -15.14062344	      1.50734650	      0.02630816	    -36.84849122	     -7.34360590	     -7.49999987	     -2.76597122	      2.76494177	      1.56009038	    175.28141552	    -18.63216397	     92.12582161	     27.90755333	     56.35728477	    162.27539127	    -16.02606939	     81.43036164	     27.98517903	     68.24093054
